<?xml version="1.0" encoding="UTF-8"?>
<svg xmlns="http://www.w3.org/2000/svg" width="750" height="450" viewBox="0 0 750 450">
  <rect width="750" height="450" fill="white"/>
  
    <circle cx="55" cy="155" r="13" fill="white" stroke="#333" stroke-width="1.8"/>
    <line x1="55" y1="168" x2="55" y2="208" stroke="#333" stroke-width="1.8"/>
    <line x1="55" y1="184" x2="33" y2="166" stroke="#333" stroke-width="1.8"/>
    <line x1="55" y1="184" x2="77" y2="166" stroke="#333" stroke-width="1.8"/>
    <line x1="55" y1="208" x2="39" y2="230" stroke="#333" stroke-width="1.8"/>
    <line x1="55" y1="208" x2="71" y2="230" stroke="#333" stroke-width="1.8"/>
    <text x="55" y="246" text-anchor="middle" font-size="14" fill="#333" font-family="sans-serif">系统用户</text>
  
    <rect x="150" y="50" width="170" height="250" fill="none" stroke="#333" stroke-width="1.5" rx="6" stroke-dasharray="6,3"/>
    <text x="160" y="70" font-size="13" fill="#333" font-family="sans-serif" font-weight="bold">«subsystem»</text>
  
  
    <rect x="340" y="50" width="170" height="250" fill="none" stroke="#333" stroke-width="1.5" rx="6" stroke-dasharray="6,3"/>
    <text x="350" y="70" font-size="13" fill="#333" font-family="sans-serif" font-weight="bold">«subsystem»</text>
  
  
    <rect x="200" y="320" width="180" height="120" fill="none" stroke="#333" stroke-width="1.5" rx="6" stroke-dasharray="6,3"/>
    <text x="210" y="340" font-size="13" fill="#333" font-family="sans-serif" font-weight="bold">«subsystem»</text>
  
  
    <rect x="400" y="320" width="180" height="120" fill="none" stroke="#333" stroke-width="1.5" rx="6" stroke-dasharray="6,3"/>
    <text x="410" y="340" font-size="13" fill="#333" font-family="sans-serif" font-weight="bold">«subsystem»</text>
  
  
    <ellipse cx="235" cy="120" rx="75" ry="26" fill="white" stroke="#333" stroke-width="1.5"/>
    <text x="235" y="124" text-anchor="middle" font-size="12" fill="#333" font-family="sans-serif">登录</text>
  
    <ellipse cx="235" cy="190" rx="75" ry="26" fill="white" stroke="#333" stroke-width="1.5"/>
    <text x="235" y="194" text-anchor="middle" font-size="12" fill="#333" font-family="sans-serif">退出</text>
  
    <ellipse cx="235" cy="260" rx="75" ry="26" fill="white" stroke="#333" stroke-width="1.5"/>
    <text x="235" y="264" text-anchor="middle" font-size="12" fill="#333" font-family="sans-serif">改密</text>
  
    <ellipse cx="425" cy="110" rx="75" ry="26" fill="white" stroke="#333" stroke-width="1.5"/>
    <text x="425" y="114" text-anchor="middle" font-size="12" fill="#333" font-family="sans-serif">客房管理</text>
  
    <ellipse cx="425" cy="180" rx="75" ry="26" fill="white" stroke="#333" stroke-width="1.5"/>
    <text x="425" y="184" text-anchor="middle" font-size="12" fill="#333" font-family="sans-serif">房型维护</text>
  
    <ellipse cx="425" cy="250" rx="75" ry="26" fill="white" stroke="#333" stroke-width="1.5"/>
    <text x="425" y="254" text-anchor="middle" font-size="12" fill="#333" font-family="sans-serif">客户管理</text>
  
    <ellipse cx="265" cy="370" rx="75" ry="26" fill="white" stroke="#333" stroke-width="1.5"/>
    <text x="265" y="374" text-anchor="middle" font-size="12" fill="#333" font-family="sans-serif">入住</text>
  
    <ellipse cx="265" cy="420" rx="75" ry="26" fill="white" stroke="#333" stroke-width="1.5"/>
    <text x="265" y="424" text-anchor="middle" font-size="12" fill="#333" font-family="sans-serif">退房</text>
  
    <ellipse cx="355" cy="395" rx="75" ry="26" fill="white" stroke="#333" stroke-width="1.5"/>
    <text x="355" y="399" text-anchor="middle" font-size="12" fill="#333" font-family="sans-serif">订单管理</text>
  
    <ellipse cx="470" cy="365" rx="75" ry="26" fill="white" stroke="#333" stroke-width="1.5"/>
    <text x="470" y="369" text-anchor="middle" font-size="12" fill="#333" font-family="sans-serif">首页看板</text>
  
    <ellipse cx="470" cy="420" rx="75" ry="26" fill="white" stroke="#333" stroke-width="1.5"/>
    <text x="470" y="424" text-anchor="middle" font-size="12" fill="#333" font-family="sans-serif">营收统计</text>
  <line x1="69" y1="195" x2="235" y2="120" stroke="#333" stroke-width="1.8"/>
  <line x1="69" y1="200" x2="425" y2="110" stroke="#333" stroke-width="1.8"/>
  <line x1="69" y1="215" x2="265" y2="370" stroke="#333" stroke-width="1.8"/>
  <line x1="69" y1="220" x2="470" y2="365" stroke="#333" stroke-width="1.8"/>
</svg>